<mxfile host="app.diagrams.net" modified="2024-03-23T12:37:47.291Z" agent="Mozilla/5.0 (Windows NT 10.0; Win64; x64; rv:124.0) Gecko/20100101 Firefox/124.0" etag="hveo7j1Kirtb0JlX2pIt" version="24.0.7" type="github">
  <diagram name="Seite-1" id="HZHZpF3LJssvfDxve-BS">
    <mxGraphModel dx="1434" dy="734" grid="1" gridSize="10" guides="1" tooltips="1" connect="1" arrows="1" fold="1" page="1" pageScale="1" pageWidth="827" pageHeight="1169" math="0" shadow="0">
      <root>
        <mxCell id="0" />
        <mxCell id="1" parent="0" />
        <mxCell id="UrRXsm-lcXoutLoRZM4d-1" value="-" style="ellipse;whiteSpace=wrap;html=1;aspect=fixed;fontSize=30;" vertex="1" parent="1">
          <mxGeometry x="80" y="240" width="80" height="80" as="geometry" />
        </mxCell>
        <mxCell id="UrRXsm-lcXoutLoRZM4d-2" value="&lt;font style=&quot;font-size: 30px;&quot;&gt;&lt;span style=&quot;left: 187.593px; top: 579.67px; font-family: sans-serif; transform: scaleX(1.01917); font-size: 30px;&quot; role=&quot;presentation&quot; dir=&quot;ltr&quot;&gt;φA&lt;/span&gt;&lt;/font&gt;" style="ellipse;whiteSpace=wrap;html=1;aspect=fixed;fontSize=30;" vertex="1" parent="1">
          <mxGeometry x="200" y="240" width="80" height="80" as="geometry" />
        </mxCell>
        <mxCell id="UrRXsm-lcXoutLoRZM4d-3" value="AC" style="ellipse;whiteSpace=wrap;html=1;aspect=fixed;fontSize=30;" vertex="1" parent="1">
          <mxGeometry x="320" y="240" width="80" height="80" as="geometry" />
        </mxCell>
        <mxCell id="UrRXsm-lcXoutLoRZM4d-4" value="AB" style="ellipse;whiteSpace=wrap;html=1;aspect=fixed;fontSize=30;" vertex="1" parent="1">
          <mxGeometry x="320" y="120" width="80" height="80" as="geometry" />
        </mxCell>
        <mxCell id="UrRXsm-lcXoutLoRZM4d-5" value="AD" style="ellipse;whiteSpace=wrap;html=1;aspect=fixed;fontSize=30;" vertex="1" parent="1">
          <mxGeometry x="320" y="360" width="80" height="80" as="geometry" />
        </mxCell>
        <mxCell id="UrRXsm-lcXoutLoRZM4d-6" value="BE" style="ellipse;whiteSpace=wrap;html=1;aspect=fixed;fontSize=30;" vertex="1" parent="1">
          <mxGeometry x="440" y="120" width="80" height="80" as="geometry" />
        </mxCell>
        <mxCell id="UrRXsm-lcXoutLoRZM4d-7" value="CE" style="ellipse;whiteSpace=wrap;html=1;aspect=fixed;fontSize=30;" vertex="1" parent="1">
          <mxGeometry x="440" y="240" width="80" height="80" as="geometry" />
        </mxCell>
        <mxCell id="UrRXsm-lcXoutLoRZM4d-9" value="DF" style="ellipse;whiteSpace=wrap;html=1;aspect=fixed;fontSize=30;" vertex="1" parent="1">
          <mxGeometry x="440" y="360" width="80" height="80" as="geometry" />
        </mxCell>
        <mxCell id="UrRXsm-lcXoutLoRZM4d-10" value="E&lt;span style=&quot;left: 187.593px; top: 579.67px; font-size: 30px; font-family: sans-serif; transform: scaleX(1.01917);&quot; role=&quot;presentation&quot; dir=&quot;ltr&quot;&gt;ψ&lt;/span&gt;" style="ellipse;whiteSpace=wrap;html=1;aspect=fixed;fontSize=30;" vertex="1" parent="1">
          <mxGeometry x="560" y="240" width="80" height="80" as="geometry" />
        </mxCell>
        <mxCell id="UrRXsm-lcXoutLoRZM4d-11" value="F&lt;span style=&quot;left: 187.593px; top: 579.67px; font-size: 30px; font-family: sans-serif; transform: scaleX(1.01917);&quot; role=&quot;presentation&quot; dir=&quot;ltr&quot;&gt;ψ&lt;/span&gt;" style="ellipse;whiteSpace=wrap;html=1;aspect=fixed;fontSize=30;" vertex="1" parent="1">
          <mxGeometry x="560" y="360" width="80" height="80" as="geometry" />
        </mxCell>
        <mxCell id="UrRXsm-lcXoutLoRZM4d-12" value="" style="endArrow=classic;html=1;rounded=0;curved=1;exitX=1;exitY=0.5;exitDx=0;exitDy=0;" edge="1" parent="1">
          <mxGeometry width="50" height="50" relative="1" as="geometry">
            <mxPoint x="160" y="279.66" as="sourcePoint" />
            <mxPoint x="200" y="279.66" as="targetPoint" />
          </mxGeometry>
        </mxCell>
        <mxCell id="UrRXsm-lcXoutLoRZM4d-13" value="" style="endArrow=classic;html=1;rounded=0;curved=1;exitX=1;exitY=0.5;exitDx=0;exitDy=0;" edge="1" parent="1">
          <mxGeometry width="50" height="50" relative="1" as="geometry">
            <mxPoint x="280" y="279.66" as="sourcePoint" />
            <mxPoint x="320" y="279.66" as="targetPoint" />
          </mxGeometry>
        </mxCell>
        <mxCell id="UrRXsm-lcXoutLoRZM4d-14" value="" style="endArrow=classic;html=1;rounded=0;curved=1;exitX=1;exitY=0.5;exitDx=0;exitDy=0;" edge="1" parent="1">
          <mxGeometry width="50" height="50" relative="1" as="geometry">
            <mxPoint x="400" y="279.66" as="sourcePoint" />
            <mxPoint x="440" y="279.66" as="targetPoint" />
          </mxGeometry>
        </mxCell>
        <mxCell id="UrRXsm-lcXoutLoRZM4d-15" value="" style="endArrow=classic;html=1;rounded=0;curved=1;exitX=1;exitY=0.5;exitDx=0;exitDy=0;" edge="1" parent="1">
          <mxGeometry width="50" height="50" relative="1" as="geometry">
            <mxPoint x="520" y="279.66" as="sourcePoint" />
            <mxPoint x="560" y="279.66" as="targetPoint" />
          </mxGeometry>
        </mxCell>
        <mxCell id="UrRXsm-lcXoutLoRZM4d-16" value="" style="endArrow=classic;html=1;rounded=0;curved=1;exitX=1;exitY=0.5;exitDx=0;exitDy=0;" edge="1" parent="1">
          <mxGeometry width="50" height="50" relative="1" as="geometry">
            <mxPoint x="400" y="399.66" as="sourcePoint" />
            <mxPoint x="440" y="399.66" as="targetPoint" />
          </mxGeometry>
        </mxCell>
        <mxCell id="UrRXsm-lcXoutLoRZM4d-17" value="" style="endArrow=classic;html=1;rounded=0;curved=1;exitX=1;exitY=0.5;exitDx=0;exitDy=0;" edge="1" parent="1">
          <mxGeometry width="50" height="50" relative="1" as="geometry">
            <mxPoint x="520" y="399.66" as="sourcePoint" />
            <mxPoint x="560" y="399.66" as="targetPoint" />
          </mxGeometry>
        </mxCell>
        <mxCell id="UrRXsm-lcXoutLoRZM4d-18" value="" style="endArrow=classic;html=1;rounded=0;curved=1;exitX=1;exitY=0.5;exitDx=0;exitDy=0;" edge="1" parent="1">
          <mxGeometry width="50" height="50" relative="1" as="geometry">
            <mxPoint x="400" y="159.66000000000003" as="sourcePoint" />
            <mxPoint x="440" y="159.66000000000003" as="targetPoint" />
          </mxGeometry>
        </mxCell>
        <mxCell id="UrRXsm-lcXoutLoRZM4d-19" value="" style="endArrow=classic;html=1;rounded=0;curved=1;exitX=1;exitY=0;exitDx=0;exitDy=0;entryX=0;entryY=0.5;entryDx=0;entryDy=0;" edge="1" parent="1" source="UrRXsm-lcXoutLoRZM4d-2" target="UrRXsm-lcXoutLoRZM4d-4">
          <mxGeometry width="50" height="50" relative="1" as="geometry">
            <mxPoint x="270" y="250.00000000000003" as="sourcePoint" />
            <mxPoint x="310" y="250.00000000000003" as="targetPoint" />
          </mxGeometry>
        </mxCell>
        <mxCell id="UrRXsm-lcXoutLoRZM4d-20" value="" style="endArrow=classic;html=1;rounded=0;curved=1;exitX=0.956;exitY=0.813;exitDx=0;exitDy=0;exitPerimeter=0;entryX=0;entryY=0.5;entryDx=0;entryDy=0;" edge="1" parent="1" source="UrRXsm-lcXoutLoRZM4d-2" target="UrRXsm-lcXoutLoRZM4d-5">
          <mxGeometry width="50" height="50" relative="1" as="geometry">
            <mxPoint x="290" y="310" as="sourcePoint" />
            <mxPoint x="330" y="310" as="targetPoint" />
          </mxGeometry>
        </mxCell>
        <mxCell id="UrRXsm-lcXoutLoRZM4d-21" value="" style="endArrow=classic;html=1;rounded=0;curved=1;exitX=1;exitY=0.5;exitDx=0;exitDy=0;entryX=0.224;entryY=0.097;entryDx=0;entryDy=0;entryPerimeter=0;" edge="1" parent="1" source="UrRXsm-lcXoutLoRZM4d-6" target="UrRXsm-lcXoutLoRZM4d-10">
          <mxGeometry width="50" height="50" relative="1" as="geometry">
            <mxPoint x="560" y="180" as="sourcePoint" />
            <mxPoint x="600" y="180" as="targetPoint" />
          </mxGeometry>
        </mxCell>
        <mxCell id="UrRXsm-lcXoutLoRZM4d-22" value="" style="endArrow=classic;html=1;rounded=0;curved=1;exitX=0.5;exitY=0;exitDx=0;exitDy=0;entryX=0.5;entryY=0;entryDx=0;entryDy=0;" edge="1" parent="1" source="UrRXsm-lcXoutLoRZM4d-10" target="UrRXsm-lcXoutLoRZM4d-1">
          <mxGeometry width="50" height="50" relative="1" as="geometry">
            <mxPoint x="640" y="279.66" as="sourcePoint" />
            <mxPoint x="680" y="279.66" as="targetPoint" />
            <Array as="points">
              <mxPoint x="500" y="-50" />
            </Array>
          </mxGeometry>
        </mxCell>
        <mxCell id="UrRXsm-lcXoutLoRZM4d-23" value="" style="endArrow=classic;html=1;rounded=0;curved=1;exitX=0.5;exitY=1;exitDx=0;exitDy=0;entryX=0.5;entryY=1;entryDx=0;entryDy=0;" edge="1" parent="1" source="UrRXsm-lcXoutLoRZM4d-11" target="UrRXsm-lcXoutLoRZM4d-1">
          <mxGeometry width="50" height="50" relative="1" as="geometry">
            <mxPoint x="640" y="399.65999999999997" as="sourcePoint" />
            <mxPoint x="680" y="399.65999999999997" as="targetPoint" />
            <Array as="points">
              <mxPoint x="310" y="510" />
            </Array>
          </mxGeometry>
        </mxCell>
      </root>
    </mxGraphModel>
  </diagram>
</mxfile>
